<?xml version="1.0" encoding="UTF-8" standalone="no"?>
<svg
   xmlns:dc="http://purl.org/dc/elements/1.1/"
   xmlns:cc="http://creativecommons.org/ns#"
   xmlns:rdf="http://www.w3.org/1999/02/22-rdf-syntax-ns#"
   xmlns:svg="http://www.w3.org/2000/svg"
   xmlns="http://www.w3.org/2000/svg"
   height="190.22551"
   width="197.79668"
   id="svg3855"
   version="1.1"
   viewBox="0 0 197.79668 190.22551">
  <metadata
     id="metadata3859">
    <rdf:RDF>
      <cc:Work
         rdf:about="">
        <dc:format>image/svg+xml</dc:format>
        <dc:type
           rdf:resource="http://purl.org/dc/dcmitype/StillImage" />
        <dc:title>open-hsr-logo</dc:title>
      </cc:Work>
    </rdf:RDF>
  </metadata>
  <defs
     id="defs3815">
    <style
       id="style3806">.cls-1{stroke:#ababab;stroke-miterlimit:2.61;stroke-width:0.22px;fill:url(#GradientFill_1);}.cls-2{fill:#1a5075;}.cls-3{fill:#c61e1e;}.cls-4{fill:#c61d1d;}.cls-4,.cls-5,.cls-6,.cls-7,.cls-8,.cls-9{fill-rule:evenodd;}.cls-5{fill:#d7d7d7;}.cls-6{fill:#e6361f;}.cls-7{fill:#8b8c8c;}.cls-8{fill:#0083bc;}.cls-9{fill:#1a4f74;}.cls-10{fill:none;}</style>
    <radialGradient
       gradientUnits="userSpaceOnUse"
       r="259.51001"
       cy="169"
       cx="256"
       id="GradientFill_1">
      <stop
         id="stop3808"
         stop-color="#fff"
         offset="0" />
      <stop
         id="stop3810"
         stop-color="#fff"
         offset="0.31" />
      <stop
         id="stop3812"
         stop-color="#f6f6f6"
         offset="1" />
    </radialGradient>
  </defs>
  <title
     id="title3817">open-hsr-logo</title>
  <g
     transform="translate(-157.57486,-69.170052)"
     data-name="open\HSR"
     id="open_HSR">
    <path
       style="fill:#1a5075"
       id="path3822"
       transform="translate(-50.5,-227.5)"
       d="m 231,466.55 c 0,8.05 -5.71,11.75 -11.61,11.75 -6.44,0 -11.38,-4.23 -11.38,-11.34 0,-7.11 4.68,-11.65 11.74,-11.65 6.74,-0.01 11.25,4.62 11.25,11.24 z m -15.93,0.23 c 0,3.78 1.57,6.61 4.5,6.61 2.66,0 4.36,-2.65 4.36,-6.61 0,-3.29 -1.26,-6.62 -4.36,-6.62 -3.29,0 -4.51,3.37 -4.51,6.61 z"
       class="cls-2" />
    <path
       style="fill:#1a5075"
       id="path3824"
       transform="translate(-50.5,-227.5)"
       d="m 235.22,463.17 c 0,-2.88 -0.09,-5.36 -0.18,-7.38 H 241 l 0.31,3.06 h 0.09 a 8.44,8.44 0 0 1 7.33,-3.55 c 4.81,0 9.13,4.18 9.13,11.2 0,8 -5.08,11.79 -10,11.79 a 6.83,6.83 0 0 1 -5.71,-2.52 h -0.09 v 10.93 h -6.84 z m 6.84,5.17 a 6.79,6.79 0 0 0 0.14,1.44 4.14,4.14 0 0 0 4,3.24 c 3,0 4.72,-2.48 4.72,-6.21 0,-3.51 -1.57,-6.17 -4.63,-6.17 a 4.3,4.3 0 0 0 -4.09,3.46 5.28,5.28 0 0 0 -0.14,1.21 z"
       class="cls-2" />
    <path
       style="fill:#1a5075"
       id="path3826"
       transform="translate(-50.5,-227.5)"
       d="m 267.53,469 c 0.23,2.83 3,4.18 6.21,4.18 a 19.38,19.38 0 0 0 6.07,-0.9 l 0.9,4.63 a 21.71,21.71 0 0 1 -8,1.35 c -7.47,0 -11.74,-4.32 -11.74,-11.21 0,-5.58 3.46,-11.74 11.11,-11.74 7.11,0 9.81,5.54 9.81,11 a 16.27,16.27 0 0 1 -0.23,2.7 z m 8.05,-4.68 c 0,-1.67 -0.72,-4.46 -3.87,-4.46 -2.88,0 -4,2.61 -4.23,4.46 z"
       class="cls-2" />
    <path
       style="fill:#1a5075"
       id="path3828"
       transform="translate(-50.5,-227.5)"
       d="m 286,462.81 c 0,-2.75 -0.09,-5.08 -0.18,-7 h 5.94 l 0.31,3 h 0.13 a 8.06,8.06 0 0 1 6.8,-3.51 c 4.5,0 7.87,3 7.87,9.45 v 13 h -6.84 V 465.6 c 0,-2.83 -1,-4.77 -3.46,-4.77 a 3.65,3.65 0 0 0 -3.46,2.56 4.71,4.71 0 0 0 -0.27,1.71 v 12.7 H 286 Z"
       class="cls-2" />
    <path
       style="fill:#c61e1e"
       id="path3830"
       transform="translate(-50.5,-227.5)"
       d="M 319.28,479.6 310.19,447 h 4.54 l 9,32.62 z"
       class="cls-3" />
    <path
       style="fill:#c61e1e"
       id="path3832"
       transform="translate(-50.5,-227.5)"
       d="m 334.36,447.47 v 11.66 h 11.29 v -11.66 h 6.84 v 30.33 h -6.84 v -12.69 h -11.29 v 12.69 h -6.88 v -30.33 z"
       class="cls-3" />
    <path
       style="fill:#c61e1e"
       id="path3834"
       transform="translate(-50.5,-227.5)"
       d="m 358.7,470.73 a 17.51,17.51 0 0 0 7.6,1.89 c 3.15,0 4.81,-1.3 4.81,-3.29 0,-1.99 -1.44,-3 -5.08,-4.27 -5,-1.75 -8.32,-4.54 -8.32,-9 0,-5.17 4.32,-9.13 11.47,-9.13 a 18.58,18.58 0 0 1 7.74,1.53 L 375.4,454 a 14.42,14.42 0 0 0 -6.34,-1.44 c -3,0 -4.41,1.35 -4.41,2.92 0,1.94 1.71,2.79 5.63,4.28 5.35,2 7.87,4.77 7.87,9 0,5.08 -3.91,9.41 -12.24,9.41 a 19.86,19.86 0 0 1 -8.59,-1.84 z"
       class="cls-3" />
    <path
       style="fill:#c61e1e"
       id="path3836"
       transform="translate(-50.5,-227.5)"
       d="m 382.78,447.88 a 60.22,60.22 0 0 1 9.13,-0.63 c 4.5,0 7.65,0.67 9.81,2.38 a 7.7,7.7 0 0 1 2.79,6.34 8,8 0 0 1 -5.35,7.47 v 0.13 c 2.11,0.86 3.28,2.88 4,5.67 0.94,3.42 1.89,7.38 2.47,8.55 h -7 a 38,38 0 0 1 -2.12,-7.06 c -0.81,-3.78 -2.12,-4.82 -4.9,-4.86 h -2.07 v 11.93 h -6.79 z m 6.79,13 h 2.7 c 3.42,0 5.44,-1.71 5.44,-4.37 0,-2.66 -1.89,-4.18 -5,-4.23 a 17.14,17.14 0 0 0 -3.1,0.22 z"
       class="cls-3" />
  </g>
  <g
     transform="translate(-157.57486,-69.170052)"
     id="symbol">
    <path
       style="fill:#c61d1d;fill-rule:evenodd"
       id="path3839"
       transform="translate(-50.5,-227.5)"
       d="m 364.46,398 v -20.41 a 13.17,13.17 0 0 1 -10.63,-7.72 h -38 l 5.18,3 14.49,8.36 v 0 l 14.5,8.37 z m 0,-46.68 V 330.9 L 350,339.26 335.51,347.63 321,356 l -5.19,3 h 38 a 13.17,13.17 0 0 1 10.63,-7.71 z m -29,29.81 z"
       class="cls-4" />
    <path
       style="fill:#d7d7d7;fill-rule:evenodd"
       transform="translate(-50.5,-227.5)"
       id="path3841"
       d="m 306.5,353.62 v -56.18 l -14.15,8.18 v 23.48 z m -14.15,2.57 v -5.61 l 4.85,8.42 v 0 z m 0,-50.58 -0.34,0.19 -3.15,1.82 a 13.16,13.16 0 0 1 -1.37,13.07 l 4.85,8.41 v -23.49 z m 0,45 v 5.61 L 292,356 277.51,347.64 v 0 L 263,339.26 248.51,330.9 263,322.53 l 3.16,-1.82 a 13.17,13.17 0 0 0 12,5.35 z"
       class="cls-5" />
    <path
       style="fill:#e6361f;fill-rule:evenodd"
       id="path3843"
       transform="translate(-50.5,-227.5)"
       d="m 320.66,305.61 0.33,0.19 3.15,1.82 a 13.17,13.17 0 0 0 1.37,13.07 l -4.86,8.41 v -23.49 z m 0,50.57 0.34,-0.18 14.49,-8.36 14.51,-8.38 14.49,-8.36 -14.49,-8.36 -3.16,-1.82 a 13.16,13.16 0 0 1 -12,5.35 l -14.16,24.52 z m -14.16,-58.75 14.16,8.18 v 23.49 l -14.16,24.53 v 0 -22.73 0 z m 14.16,53.15 -4.86,8.42 4.86,-2.8 v -5.61 z M 306.5,330.9 Z"
       class="cls-6" />
    <path
       style="fill:#8b8c8c;fill-rule:evenodd"
       id="path3845"
       transform="translate(-50.5,-227.5)"
       d="m 248.54,330.9 v 20.37 a 13.17,13.17 0 0 1 10.64,7.73 h 38 l -5.18,-3 -14.49,-8.36 v 0 L 263,339.26 248.51,330.9 Z m 0,46.55 v 20.37 l 14.46,-8.36 14.49,-8.37 14.51,-8.36 5.19,-3 h -38 a 13.17,13.17 0 0 1 -10.64,7.72 z m 29,-29.82 z"
       class="cls-7" />
    <path
       style="fill:#0083bc;fill-rule:evenodd"
       id="path3847"
       transform="translate(-50.5,-227.5)"
       d="M 306.5,431.28 292.35,423.1 V 399.61 L 306.5,375.1 v 22.72 0 z m -14.15,-53.15 4.85,-8.41 -4.85,2.8 z m 14.15,19.68 z m -14.15,25.29 -0.33,-0.19 -3.16,-1.82 A 13.18,13.18 0 0 0 287.49,408 l 4.85,-8.41 v 23.49 z m 0,-50.57 -0.34,0.19 -14.49,8.36 -14.52,8.38 -14.49,8.36 14.49,8.36 3.16,1.82 a 13.18,13.18 0 0 1 12,-5.35 l 14.15,-24.52 z"
       class="cls-8" />
    <path
       style="fill:#1a4f74;fill-rule:evenodd"
       id="path3849"
       transform="translate(-50.5,-227.5)"
       d="m 320.66,372.53 0.33,0.19 14.49,8.36 14.52,8.38 14.49,8.36 -14.49,8.37 -3.19,1.81 a 13.16,13.16 0 0 0 -12,-5.35 l -14.15,-24.51 z m 0,50.57 0.33,-0.19 3.15,-1.82 A 13.17,13.17 0 0 1 325.51,408 l -4.86,-8.41 z m -4.86,-53.38 4.86,2.8 v 5.61 z m 4.86,29.89 -14.16,-24.51 v 22.72 0 33.46 l 14.16,-8.18 z"
       class="cls-9" />
    <rect
       style="fill:none"
       y="0"
       x="0"
       height="337"
       width="512"
       class="cls-10"
       data-name="&lt;Slice&gt;"
       id="_Slice_" />
    <rect
       style="fill:none"
       height="134"
       width="119"
       y="70"
       x="196"
       class="cls-10"
       data-name="&lt;Slice&gt;"
       id="_Slice_2" />
    <rect
       style="fill:none"
       y="0"
       x="0"
       height="297"
       width="512"
       class="cls-10"
       data-name="&lt;Slice&gt;"
       id="_Slice_3" />
  </g>
</svg>
