<?xml version="1.0" encoding="UTF-8" standalone="no"?>
<svg
   xmlns:dc="http://purl.org/dc/elements/1.1/"
   xmlns:cc="http://creativecommons.org/ns#"
   xmlns:rdf="http://www.w3.org/1999/02/22-rdf-syntax-ns#"
   xmlns:svg="http://www.w3.org/2000/svg"
   xmlns="http://www.w3.org/2000/svg"
   height="45.591686"
   width="235.14999"
   version="1.1"
   viewBox="0 0 235.14999 45.591687"
   id="logo">
  <metadata
     id="metadata63">
    <rdf:RDF>
      <cc:Work
         rdf:about="">
        <dc:format>image/svg+xml</dc:format>
        <dc:type
           rdf:resource="http://purl.org/dc/dcmitype/StillImage" />
        <dc:title></dc:title>
      </cc:Work>
    </rdf:RDF>
  </metadata>
  <defs
     id="defs61" />
  <polygon
     transform="matrix(0.5,0,0,0.5,0,0.02)"
     style="fill:#238dc1"
     id="polygon2"
     points="188.41,50.03 163.65,74.79 176.58,87.73 214.28,50.03 176.74,12.48 163.8,25.42 " />
  <path
     style="fill:#1c355e;stroke-width:0.5"
     id="path4"
     d="m 53.36,6.875 a 4.675,4.675 0 0 1 2.105,0.5 C 55.73,4.875 54.965,2.445 54.17,0 53.225,2.355 52.295,4.685 52.135,7.04 A 4.04,4.04 0 0 1 53.36,6.875 Z" />
  <path
     style="fill:#1c355e;stroke-width:0.5"
     id="path6"
     d="m 44.095,9.925 v 0 c 0.12,0 0.24,0 0.36,0 -0.09,-2.235 0.665,-4.355 1.3,-6.5 -2.53,1.81 -3.715,4.285 -4.1,7.215 a 4.45,4.45 0 0 1 2.44,-0.715 z" />
  <path
     style="fill:#1c355e;stroke-width:0.5"
     id="path8"
     d="m 37.885,17.09 a 37,37 0 0 1 0.57,-3.68 c -2.26,2.11 -3.2,4.685 -3.25,7.61 a 4.03,4.03 0 0 1 2.75,-1.095 22.695,22.695 0 0 1 -0.07,-2.835 z" />
  <path
     style="fill:#1c355e;stroke-width:0.5"
     id="path10"
     d="m 62.645,9.875 v 0 A 3.925,3.925 0 0 1 64.895,10.6 10.5,10.5 0 0 0 61.33,2.52 c 0.61,2.61 1.125,5 0.74,7.405 a 3.715,3.715 0 0 1 0.575,-0.05 z" />
  <path
     style="fill:#1c355e;stroke-width:0.5"
     id="path12"
     d="m 70.025,17.975 a 5,5 0 0 1 1.14,0.14 3.615,3.615 0 0 1 1.045,0.435 c 0,-3 -1.66,-6.715 -3.5,-7.57 a 15.965,15.965 0 0 1 0.74,7.04 4.385,4.385 0 0 1 0.575,-0.045 z" />
  <path
     style="fill:#1c355e;stroke-width:0.5"
     id="path14"
     d="m 46.435,12.6 a 3.28,3.28 0 0 0 -2.34,-1.08 3.15,3.15 0 0 0 -2.79,1.9 7.645,7.645 0 0 0 -0.625,4.42 c 0.25,2 0.925,3.87 2.46,5.29 a 3.58,3.58 0 0 0 2.4,1.075 c 1.08,0 2.07,-0.665 2.685,-1.965 A 13.595,13.595 0 0 0 49,19.52 15.575,15.575 0 0 0 48.755,17.195 q -0.15,-0.5 -0.255,-1.08 A 8.19,8.19 0 0 0 46.435,12.6 Z" />
  <path
     style="fill:#1c355e;stroke-width:0.5"
     id="path16"
     d="m 57.445,14.195 a 7.245,7.245 0 0 0 -0.83,-4 3.935,3.935 0 0 0 -3.255,-2.04 3.12,3.12 0 0 0 -2.565,1.435 c -1.735,2.43 -1.585,7.345 0.385,9.525 a 3.85,3.85 0 0 0 1.78,1.105 2.785,2.785 0 0 0 0.69,0.09 c 1.21,0 2.275,-0.85 2.935,-2.275 a 7.645,7.645 0 0 0 0.86,-3.84 z" />
  <path
     style="fill:#1c355e;stroke-width:0.5"
     id="path18"
     d="m 63.9,22.86 c 2.395,-2.295 3,-7.155 1.265,-10 a 3,3 0 0 0 -2.5,-1.63 3.21,3.21 0 0 0 -2.56,1.55 9.5,9.5 0 0 0 -1.605,5.18 c 0.06,1.735 0.29,3.405 1.5,4.75 a 2.715,2.715 0 0 0 2,0.955 2.685,2.685 0 0 0 1.9,-0.805 z" />
  <path
     style="fill:#1c355e;stroke-width:0.5"
     id="path20"
     d="m 73.2,23.07 c -0.115,-1.71 -1.07,-3.235 -2.375,-3.545 a 3.215,3.215 0 0 0 -0.8,-0.1 c -1.195,0 -2.15,0.69 -2.95,1.64 A 7.96,7.96 0 0 0 65.26,27.67 c 0.225,1.415 0.765,2.71 2.315,3.13 a 3,3 0 0 0 0.845,0.12 c 1.12,0 2.03,-0.64 2.81,-1.5 a 8,8 0 0 0 1.975,-5.4 c 0,-0.315 0.02,-0.635 -0.005,-0.95 z" />
  <path
     style="fill:#1c355e;stroke-width:0.5"
     id="path22"
     d="M 42.14,26.9 C 41.87,25.02 41.3,23.52 39.915,22.33 A 3,3 0 0 0 38,21.55 a 2.63,2.63 0 0 0 -2.375,1.63 8.165,8.165 0 0 0 -0.7,2.58 c -0.25,2.18 0.135,4.225 1.61,5.96 a 3.27,3.27 0 0 0 2.425,1.3 c 1,0 1.935,-0.595 2.535,-1.77 a 4.62,4.62 0 0 0 0.27,-0.625 7.57,7.57 0 0 0 0.375,-3.725 z" />
  <path
     style="fill:#1c355e;stroke-width:0.5"
     id="path24"
     d="M 61.5,44.95 Z" />
  <path
     style="fill:#1c355e;stroke-width:0.5"
     id="path26"
     d="M 65.685,31.465 A 7.665,7.665 0 0 1 61.06,26.02 3.665,3.665 0 0 0 60.345,24.655 3.715,3.715 0 0 0 59.635,23.985 C 59.4,23.82 59.135,23.67 58.91,23.53 a 10.265,10.265 0 0 0 -9.365,-0.3 10.85,10.85 0 0 0 -1.37,0.765 6.84,6.84 0 0 0 -1.85,1.78 11.15,11.15 0 0 0 -1.535,3.245 c -0.88,2.785 -2.4,5.045 -5.26,6.215 a 4.7,4.7 0 0 0 -2.84,3.045 c -0.91,2.97 1.945,7.03 5.1,7.295 a 9.36,9.36 0 0 0 4.64,-0.92 13.035,13.035 0 0 1 9.5,-0.645 c 1.785,0.555 3.695,0.575 5.535,0.95 3.545,0.215 6,-1.595 7.935,-4.31 A 7.095,7.095 0 0 0 70.725,37.28 4.175,4.175 0 0 0 68.61,32.925 C 68.24,32.71 67.875,32.49 67.5,32.285 A 9.5,9.5 0 0 0 66.355,31.75 c -0.22,-0.095 -0.45,-0.19 -0.67,-0.285 z M 61.5,44.93" />
  <polygon
     transform="matrix(0.5,0,0,0.5,0,0.02)"
     style="fill:#238dc1"
     id="polygon28"
     points="25.87,50.19 50.64,25.42 37.7,12.48 0,50.19 37.54,87.73 50.48,74.79 " />
  <path
     style="fill:#1c355e;stroke-width:0.5"
     id="path30"
     d="m 146.28,7.43 c 1.1,0 3.095,0.09 4.555,1.25 0.62,0.5 1.785,1.7 1.785,4.11 a 4.5,4.5 0 0 1 -1.965,3.895 5,5 0 0 1 3.78,5 5.5,5.5 0 0 1 -2.025,4.285 c -1.575,1.25 -3.395,1.31 -4.76,1.31 h -4.94 V 7.43 Z m -1.37,8.72 h 1.665 c 1.165,0 3.9,-0.24 3.9,-3.3 0,-3.275 -3.215,-3.335 -3.84,-3.335 h -1.725 z m 0,9.045 h 2.53 c 1.28,0 2.53,-0.09 3.5,-0.83 a 3.355,3.355 0 0 0 1.31,-2.74 3.21,3.21 0 0 0 -1.695,-2.915 c -0.745,-0.415 -1.785,-0.595 -3.365,-0.595 h -2.26 z" />
  <path
     style="fill:#1c355e;stroke-width:0.5"
     id="path32"
     d="m 161.24,7.43 c 1.34,0 3.335,0.09 4.82,1.105 a 5.175,5.175 0 0 1 2.175,4.4 c 0,3.035 -2,5.27 -5,5.5 l 6.305,8.87 h -2.675 l -6.04,-8.715 h -0.565 v 8.69 h -2.205 V 7.43 Z m -1,9.195 h 1.395 c 2.74,0 4.375,-1.31 4.375,-3.63 A 3.085,3.085 0 0 0 164.435,10.08 5.675,5.675 0 0 0 161.6,9.52 h -1.34 z" />
  <path
     style="fill:#1c355e;stroke-width:0.5"
     id="path34"
     d="m 174.355,19.6 c 0,1.67 0,3.5 1.58,4.82 a 5.285,5.285 0 0 0 6.545,0 c 1.575,-1.335 1.575,-3.15 1.575,-4.82 V 7.43 h 2.205 v 12.765 c 0,1.67 -0.18,3.275 -1.25,4.765 -1.19,1.635 -3.275,2.675 -5.805,2.675 -2.53,0 -4.61,-1.04 -5.8,-2.675 -1.07,-1.5 -1.25,-3.095 -1.25,-4.765 V 7.43 h 2.2 z" />
  <path
     style="fill:#1c355e;stroke-width:0.5"
     id="path36"
     d="M 193.245,15.52 H 203.42 V 7.43 h 2.2 v 19.85 h -2.2 v -9.7 h -10.175 v 9.7 H 191.04 V 7.43 h 2.205 z" />
  <path
     style="fill:#1c355e;stroke-width:0.5"
     id="path38"
     d="m 212.66,7.43 v 19.85 h -2.2 V 7.43 Z" />
  <path
     style="fill:#1c355e;stroke-width:0.5"
     id="path40"
     d="M 217.45,27.28 V 6.6 l 15.5,16.215 V 7.43 h 2.2 V 28.17 L 219.655,11.955 V 27.28 Z" />
  <path
     style="fill:#1c355e;stroke-width:0.5"
     id="path42"
     d="m 146.325,37.36 a 2.225,2.225 0 0 0 -0.53,-0.68 1.64,1.64 0 0 0 -1,-0.31 1.39,1.39 0 0 0 -1.5,1.395 0.95,0.95 0 0 0 0.34,0.79 2.97,2.97 0 0 0 0.95,0.57 l 0.87,0.38 a 4.385,4.385 0 0 1 1.4,0.855 2.18,2.18 0 0 1 0.65,1.645 2.905,2.905 0 0 1 -4.835,2.05 3.25,3.25 0 0 1 -0.84,-1.605 l 0.975,-0.27 a 2.14,2.14 0 0 0 0.545,1.155 1.855,1.855 0 0 0 3.125,-1.29 1.355,1.355 0 0 0 -0.45,-1.06 4.035,4.035 0 0 0 -1.085,-0.625 l -0.815,-0.38 a 3.875,3.875 0 0 1 -1.21,-0.745 1.875,1.875 0 0 1 -0.625,-1.5 c 0,-1.4 1.075,-2.335 2.54,-2.335 a 2.455,2.455 0 0 1 1.455,0.405 2.755,2.755 0 0 1 0.88,1 z" />
  <path
     style="fill:#1c355e;stroke-width:0.5"
     id="path44"
     d="m 151.37,40.105 a 4.715,4.715 0 1 1 4.71,4.685 4.62,4.62 0 0 1 -4.71,-4.685 z m 1.03,0 a 3.68,3.68 0 1 0 3.68,-3.735 3.7,3.7 0 0 0 -3.68,3.735 z" />
  <path
     style="fill:#1c355e;stroke-width:0.5"
     id="path46"
     d="m 169.5,36.52 h -3.12 v 2.675 h 3 v 0.95 h -3 v 4.5 h -1 v -9.08 h 4.12 z" />
  <path
     style="fill:#1c355e;stroke-width:0.5"
     id="path48"
     d="m 176.39,36.52 v 8.105 h -1 V 36.52 h -2.2 v -0.955 h 5.405 v 0.955 z" />
  <path
     style="fill:#1c355e;stroke-width:0.5"
     id="path50"
     d="m 183.175,35.565 2.39,6.79 2.84,-7.25 2.69,7.25 2.645,-6.79 h 1.115 l -3.805,9.535 -2.66,-7.25 -2.85,7.25 -3.475,-9.535 z" />
  <path
     style="fill:#1c355e;stroke-width:0.5"
     id="path52"
     d="m 203.075,42.07 h -3.855 l -1.09,2.555 H 197 l 4.165,-9.5 4.065,9.5 h -1.115 z m -0.395,-0.95 -1.5,-3.625 -1.55,3.625 z" />
  <path
     style="fill:#1c355e;stroke-width:0.5"
     id="path54"
     d="m 210.665,35.565 a 3.97,3.97 0 0 1 2.195,0.5 2.5,2.5 0 0 1 -1.29,4.5 l 2.88,4.045 h -1.22 l -2.76,-3.965 h -0.255 v 3.965 h -1 v -9.045 z m -0.45,4.2 h 0.64 c 1.245,0 2,-0.6 2,-1.66 a 1.41,1.41 0 0 0 -0.72,-1.33 2.6,2.6 0 0 0 -1.305,-0.255 h -0.61 z" />
  <path
     style="fill:#1c355e;stroke-width:0.5"
     id="path56"
     d="m 223.325,36.52 h -3.69 v 2.685 h 3.585 v 0.95 h -3.585 v 3.5 h 3.69 v 0.95 h -4.695 v -9.04 h 4.695 z" />
</svg>
