<?xml version="1.0" encoding="UTF-8" standalone="no"?>
<svg
   xmlns:dc="http://purl.org/dc/elements/1.1/"
   xmlns:cc="http://creativecommons.org/ns#"
   xmlns:rdf="http://www.w3.org/1999/02/22-rdf-syntax-ns#"
   xmlns:svg="http://www.w3.org/2000/svg"
   xmlns="http://www.w3.org/2000/svg"
   version="1.1"
   viewBox="0 0 169.60689 70.178327"
   height="19.805883mm"
   width="47.866833mm">
  <g
     transform="translate(-226.34201,-276.45928)"
     id="layer1">
    <path
       id="path4855-9"
       d="m 275.29908,318.21807 c -0.20089,-0.20089 -4.35351,3.70013 -4.35351,4.08984 0,0.18942 0.3029,0.22829 0.67383,0.0859 0.99119,-0.38035 0.82305,0.31779 -0.3418,1.41211 -1.49156,1.40125 -4.06681,2.34765 -6.38672,2.34765 -1.12075,0 -2.03906,0.20193 -2.03906,0.44922 0,0.70848 4.87787,0.52561 6.5,-0.24414 0.80573,-0.38235 2.02313,-1.27843 2.70508,-1.99023 0.68195,-0.7118 1.47741,-1.20315 1.76758,-1.0918 0.33266,0.12765 0.72701,-0.74523 1.0664,-2.36328 0.29602,-1.41131 0.4797,-2.62381 0.4082,-2.69531 z"
       style="fill:#000000" />
    <path
       id="path4853-9"
       d="m 255.38698,317.25322 c 0.14435,-0.0537 0.39841,-0.0418 0.77343,0.0586 0.58951,0.15777 2.40602,0.28897 4.03516,0.29297 l 2.96094,0.006 0.0586,1.57422 c 0.0568,1.51236 -0.003,1.57422 -1.52734,1.57422 -1.08472,0 -1.48498,-0.16462 -1.26563,-0.51953 0.19458,-0.31484 0.12406,-0.39671 -0.17969,-0.20898 -0.4955,0.30623 -0.84296,0.1856 -3.44726,-1.19141 -1.28141,-0.67754 -1.84127,-1.42474 -1.4082,-1.58594 z m 11.36328,0.35742 c 0.90673,0 1.56397,0.0721 1.46093,0.16016 -0.50574,0.43254 -3.10937,0.66661 -3.10937,0.2793 0,-0.24111 0.74171,-0.43946 1.64844,-0.43946 z"
       style="fill:#000000" />
    <path
       id="path4847-3"
       d="m 245.02174,310.40557 c -0.10174,0.0234 -0.1543,0.18196 -0.1543,0.47656 0,1.77995 4.57816,8.62941 7.57618,11.33594 2.04002,1.84165 2.20413,2.13671 1.1914,2.13671 -1.39313,0 -0.57966,1.15887 1.4707,2.09571 3.78559,1.72969 4.09324,1.32734 1.61719,-2.11914 -0.95281,-1.32623 -1.87963,-2.18045 -2.22265,-2.04883 -0.9502,0.36463 -5.29543,-4.72935 -7.20118,-8.44141 -1.21041,-2.35766 -1.97212,-3.50578 -2.27734,-3.43554 z"
       style="fill:#000000" />
    <path
       id="path4843-2"
       d="m 245.86549,291.54619 c -0.10407,-0.0208 -0.26398,0.0366 -0.47656,0.16797 -0.5332,0.32953 -1.86914,4.14404 -1.86914,5.33594 0,0.48707 -0.39642,0.96476 -0.91211,1.09961 -0.57475,0.15031 -0.83749,0.50988 -0.70899,0.9707 0.11211,0.4021 0.34444,1.43918 0.51563,2.30469 0.17118,0.86552 0.40816,1.73507 0.52539,1.93359 0.11722,0.19856 0.4364,0.28681 0.71094,0.19531 0.42646,-0.14215 0.83313,-1.2799 1.72265,-4.82617 0.093,-0.37093 -0.0835,-0.6243 -0.39258,-0.5625 -0.85348,0.1707 -0.66883,-2.08025 0.35547,-4.33789 0.66517,-1.46614 0.84152,-2.21897 0.5293,-2.28125 z"
       style="fill:#000000" />
    <path
       id="path4841-4"
       d="m 259.19166,290.44853 c -0.41245,0.25491 3.18118,4.68126 3.80078,4.68164 0.2001,1.2e-4 0.23878,-0.20192 0.0859,-0.44921 -0.15283,-0.24729 -0.0183,-0.44922 0.29883,-0.44922 0.92382,0 5.4482,5.03984 6.58789,7.33789 0.9328,1.88091 1.88086,2.74807 1.88086,1.72265 0,-0.87367 -3.81334,-6.18198 -5.90039,-8.21484 -1.23948,-1.20729 -2.02072,-2.19531 -1.73633,-2.19531 0.28437,0 0.44312,-0.21952 0.35352,-0.48828 -0.20026,-0.60076 -4.8322,-2.27837 -5.3711,-1.94532 z"
       style="fill:#000000" />
    <path
       id="path4830-3"
       d="m 256.43776,278.68291 -0.10352,29.26172 -3.37305,0 -3.37109,0 -0.0957,-10.79102 c -0.0517,-5.93496 -0.10113,-13.07839 -0.11133,-15.875 -0.0119,-3.27089 -0.17952,-4.9854 -0.46875,-4.80664 -0.24729,0.15283 -0.44922,1.78742 -0.44922,3.63281 0,3.23 -0.046,3.37434 -1.23633,3.89258 -2.80423,1.22093 -11.38654,6.78049 -12.59961,8.16211 -2.73352,3.1133 -4.14843,7.59098 -4.14844,13.125 l 0,2.83594 -4.04307,0.96889 c 0,0 -0.25254,0.40001 0.0631,0.55785 6.93276,0.65934 3.38428,-0.47786 4.27095,0.0123 0.24715,0.24715 1.46562,5.18084 1.49024,6.0332 -2.00437,0.24528 -5.82433,1.66616 -5.82433,1.66616 0.50904,0.76876 2.47155,-0.15914 6.83995,0.0272 l 0.73633,1.82227 c 1.97617,4.88395 8.06022,12.27694 12.54101,15.24219 l 1.81446,1.20117 -0.0645,5.99416 0.26097,4.9918 0.92606,-0.8929 c 0,0 0.32272,-1.565 0.32272,-4.2884 0,0 0.0439,-5.04042 0.78516,-4.75583 0.43275,0.16616 1.95112,0.62606 3.37304,1.02148 l 2.58594,0.71875 0,3.3535 -0.15244,3.1884 1.05804,-0.5357 c -0.0713,-0.2292 0.10237,-2.0876 0.0835,-3.4519 0.61868,-5.02649 -0.45579,3.83844 0.21796,-1.01524 0.22698,-1.49435 0.40257,-1.68554 1.53906,-1.68554 1.91585,0 4.68167,-1.22356 8.94336,-3.95313 7.3461,-4.70512 9.58636,-7.8551 10.29883,-14.47851 l 0.26758,-2.47657 117.11118,0.83612 c 0.26169,-0.55168 -1.78906,-0.57226 -1.78906,-0.57226 -25.4768,-0.78175 -111.17143,-1.38693 -138.87681,-1.38693 l -1.16797,-1.01172 c -1.42319,-1.23317 -2.5624,-4.28977 -1.99414,-5.35156 24.06341,-1.1518 -6.46073,-2.18658 25.54568,-0.83003 0.0895,-0.55623 -0.0533,-0.3956 -0.29958,-0.80474 l -2.03125,-4.28711 c -1.11694,-2.35789 -2.69616,-5.2627 -3.50977,-6.45508 -3.20979,-4.7041 -9.66908,-10.4846 -13.22851,-11.83789 l -1.16993,-0.44531 0.38867,-3.29297 c -0.60093,-4.28133 -0.47768,-3.03926 -1.35546,-3.26367 z m -9.20899,6.68945 c 1.31129,-0.53031 1.27053,0.9197 1.10547,6.72266 -0.10727,3.77117 -0.42456,7.84891 -0.70508,9.06055 -1.36509,5.89616 2.7613,14.99482 8.57813,18.9121 4.54521,3.06093 9.22289,3.12921 11.89843,0.17383 2.88653,-3.18843 2.68763,-3.07926 5.6504,-3.07226 3.87975,0.01 4.0052,0.13491 3.46484,3.49023 -0.24658,1.53113 -0.64722,3.309 -0.89063,3.94922 -0.92623,2.43616 -3.10072,4.97903 -5.26367,6.15625 -10.42919,5.67628 -26.32734,-6.49003 -30.70312,-23.49609 -0.79974,-3.10828 -0.94336,-4.6596 -0.76953,-8.31641 0.30308,-6.37609 1.91885,-9.83749 5.82617,-12.47656 0.78325,-0.52903 1.3715,-0.92675 1.80859,-1.10352 z m 10.22852,1.56641 1.20898,0.30469 c 2.46597,0.61892 7.8039,5.01313 10.76953,8.86718 2.2535,2.9286 6.00586,9.96443 6.00586,11.25977 0,0.67533 -0.41137,0.79883 -2.66601,0.79883 l -2.66602,0 -1.5918,-3.3086 c -1.92378,-3.99972 -5.42959,-7.71779 -8.71875,-9.24609 l -2.34179,-1.08789 0,-3.79297 z m -17.21485,2.98047 c 0.0332,0.0867 -0.1326,0.40123 -0.46679,1.02148 -1.41741,2.63067 -1.60452,3.53569 -1.79688,8.68555 -0.0785,2.10196 0.10005,4.7598 0.39649,5.90625 0.31515,1.2188 0.37755,2.33868 0.15039,2.69726 -0.21369,0.33728 -0.38868,0.81521 -0.38867,1.0625 0,0.24729 0.17412,0.17536 0.38671,-0.16015 0.28668,-0.45246 0.47107,-0.47333 0.71289,-0.082 0.17931,0.29014 0.20676,0.64669 0.0606,0.79297 -0.14626,0.14625 -0.0246,0.5592 0.27149,0.91601 0.29613,0.35681 0.58081,0.93874 0.63281,1.29297 0.052,0.35423 0.51411,1.44486 1.02539,2.42578 0.51129,0.98091 0.83056,1.78516 0.70898,1.78516 -0.12159,0 0.33562,0.62525 1.01758,1.39062 0.68195,0.76538 1.24024,1.58449 1.24024,1.82031 0,0.45849 2.84282,4.12676 4.75586,6.13672 1.24396,1.30699 7.09017,5.60654 7.83398,5.76172 0.24729,0.0516 1.25889,0.45261 2.24805,0.89063 0.98916,0.43803 2.20268,0.86286 2.69726,0.94336 0.49458,0.0805 1.7787,0.2959 2.85352,0.48046 l 1.95508,0.33594 -2.4043,1.30274 c -1.91173,1.03513 -3.04778,1.31963 -5.55078,1.39453 -3.33613,0.0999 -6.56857,-0.52955 -7.49219,-1.46094 -0.30654,-0.30911 -0.87062,-0.56345 -1.25391,-0.56445 -0.3833,-10e-4 -1.33151,-0.59693 -2.10742,-1.32422 -0.77591,-0.72729 -1.53411,-1.19831 -1.68555,-1.04688 -0.15143,0.15143 -0.27539,0.0258 -0.27539,-0.27734 0,-0.30313 -0.17141,-0.4439 -0.38085,-0.31445 -0.53652,0.33158 -2.85366,-2.18625 -2.43555,-2.64649 0.18893,-0.20793 0.11789,-0.24924 -0.15821,-0.0918 -0.27606,0.15746 -0.8838,-0.14843 -1.3496,-0.67969 -0.55487,-0.63284 -0.61373,-0.83952 -0.17188,-0.59961 0.37094,0.20139 -0.28632,-0.63124 -1.46094,-1.84961 -2.06074,-2.13746 -2.7415,-3.25629 -1.57422,-2.58984 0.30912,0.17649 -0.0342,-0.3182 -0.76171,-1.09961 -0.72756,-0.78142 -1.37285,-1.7703 -1.43555,-2.19727 -0.0627,-0.42696 -0.32714,-0.84865 -0.58789,-0.93555 -0.26076,-0.0869 -0.47461,-0.5328 -0.47461,-0.99218 0,-0.45938 -0.21633,-0.96956 -0.48047,-1.13282 -0.26417,-0.16325 -0.37662,-0.56653 -0.25,-0.89648 0.12661,-0.32995 0.0366,-0.66359 -0.19922,-0.74219 -0.23584,-0.0786 -0.50124,-0.54725 -0.58984,-1.04101 -0.36937,-2.05905 -0.88603,-4.54002 -1.07813,-5.16993 -0.46388,-1.52105 -0.0934,-10.04988 0.46094,-10.60351 0.18547,-0.18522 0.33789,-0.68239 0.33789,-1.10547 0,-0.42309 0.30289,-1.02223 0.67383,-1.33008 0.37093,-0.30785 0.67578,-0.91874 0.67578,-1.35742 0,-0.94329 3.01118,-3.72385 3.62305,-3.3457 0.23248,0.14369 0.42187,0.095 0.42187,-0.10742 0,-0.20241 0.42466,-0.63311 0.94336,-0.95704 0.46145,-0.28818 0.69336,-0.42844 0.72656,-0.34179 z m 20.14454,8.06836 c 0.50952,-0.19553 1.49443,0.46258 3.17578,2.12304 1.34047,1.32382 2.4375,2.63963 2.4375,2.92383 0,0.28422 0.37285,1.00011 0.82812,1.58984 0.45526,0.58977 0.94222,1.52759 1.08203,2.08399 0.24744,0.98474 0.15917,1.01172 -3.27539,1.01172 -1.94057,0 -3.65185,-0.20388 -3.80469,-0.45117 -0.15282,-0.24729 -0.12782,-0.44922 0.0566,-0.44922 0.18448,0 -0.23503,-0.59516 -0.93165,-1.32227 -0.91327,-0.95301 -1.16853,-1.5482 -0.91601,-2.13476 0.19267,-0.44752 0.37158,-1.31927 0.39648,-1.9375 0.0249,-0.61822 0.20815,-1.37643 0.40821,-1.68555 0.20006,-0.30911 0.23788,-0.7666 0.084,-1.01563 -0.15391,-0.24904 0.0527,-0.58043 0.45899,-0.73632 z m -2.47852,7.70703 c 0.24775,-0.15312 0.65837,0.26814 0.91211,0.93554 0.56777,1.49334 0.32768,1.81597 -0.63477,0.85352 -0.83554,-0.83555 -0.92146,-1.39097 -0.27734,-1.78906 z"
       style="fill:#000000" />
    <g
       aria-label="coredump"
       style="font-style:normal;font-variant:normal;font-weight:normal;font-stretch:normal;font-size:20px;line-height:125%;font-family:OCRB;-inkscape-font-specification:'OCRB, Normal';text-align:center;letter-spacing:0px;word-spacing:0px;writing-mode:lr-tb;text-anchor:middle;fill:#000000;fill-opacity:1;stroke:none;stroke-width:1px;stroke-linecap:butt;stroke-linejoin:miter;stroke-opacity:1"
       id="text4913-9-7-9-5">
      <path
         d="m 283.66037,305.74037 c 0,2.54 0.62,4.44 2.3,5.34 0.66,0.36 1.32,0.5 1.98,0.5 1.76,0 3.32,-1.12 3.7,-2.64 v -0.24 c 0,-0.54 -0.44,-1 -0.98,-1 -0.5,0 -0.88,0.38 -0.98,0.78 -0.14,0.54 -0.62,0.9 -1.16,1.02 -0.24,0.06 -0.48,0.08 -0.68,0.08 -1.82,0 -2.18,-1.96 -2.18,-3.84 0,-1.32 0.28,-2.6 1.2,-3.04 0.34,-0.16 0.8,-0.24 1.28,-0.24 0.66,0 1.28,0.18 1.44,0.64 0.14,0.42 0.48,0.78 0.96,0.78 0.56,0 0.98,-0.44 0.98,-1 v -0.24 c -0.3,-1.22 -1.4,-1.96 -2.68,-2.12 -0.3,-0.04 -0.58,-0.06 -0.86,-0.06 -3.02,0 -4.32,2.26 -4.32,5.28 z"
         style="font-style:normal;font-variant:normal;font-weight:normal;font-stretch:normal;font-size:20px;line-height:125%;font-family:OCRB;-inkscape-font-specification:'OCRB, Normal';text-align:center;writing-mode:lr-tb;text-anchor:middle"
         id="path887" />
      <path
         d="m 297.04036,305.96037 c 0,3.16 1.78,5.58 5,5.58 3.2,0 5,-2.46 5,-5.58 0,-3.16 -1.84,-5.62 -5,-5.62 -3.26,0 -5,2.46 -5,5.62 z m 2,0 c 0,-1.98 0.96,-3.62 3,-3.62 2.02,0 3,1.62 3,3.62 0,1.98 -0.94,3.58 -3,3.58 -2.06,0 -3,-1.6 -3,-3.58 z"
         style="font-style:normal;font-variant:normal;font-weight:normal;font-stretch:normal;font-size:20px;line-height:125%;font-family:OCRB;-inkscape-font-specification:'OCRB, Normal';text-align:center;writing-mode:lr-tb;text-anchor:middle"
         id="path889" />
      <path
         d="m 313.32036,310.48037 c 0,0.54 0.46,1 1,1 0.54,0 1,-0.44 1,-1 v -4.48 c 0,-1.5 0.88,-3.28 2.48,-3.5 0.14,0 0.28,-0.06 0.42,-0.06 0.1,0 0.22,0.06 0.32,0.06 0.36,0.08 0.62,0.38 0.62,0.74 0.02,0.54 0.46,0.98 1,0.98 0.54,0 1,-0.46 1,-1.02 -0.02,-1.5 -1.18,-2.76 -2.94,-2.76 -1.2,0 -2.16,0.4 -2.9,1.06 0,-0.56 -0.44,-0.98 -1,-0.98 -0.54,0 -1,0.44 -1,0.98 z"
         style="font-style:normal;font-variant:normal;font-weight:normal;font-stretch:normal;font-size:20px;line-height:125%;font-family:OCRB;-inkscape-font-specification:'OCRB, Normal';text-align:center;writing-mode:lr-tb;text-anchor:middle"
         id="path891" />
      <path
         d="m 326.24035,305.74037 c 0,2.74 1.12,4.82 3.26,5.52 0.5,0.16 1.18,0.26 1.9,0.26 1.56,0 3.24,-0.46 3.24,-1.78 0,-0.56 -0.46,-1 -1.02,-1 -0.26,0 -0.5,0.1 -0.68,0.28 -0.26,0.26 -0.58,0.42 -1,0.48 -0.24,0.04 -0.48,0.06 -0.7,0.06 -1.88,0 -2.78,-1.26 -2.96,-3.06 h 6.4 c 0.54,0 1,-0.46 1,-1 0,-2.96 -1.58,-5.16 -4.62,-5.16 h -0.12 c -3,0.06 -4.7,2.42 -4.7,5.4 z m 2.14,-1.24 c 0.34,-1.24 1.18,-2.16 2.6,-2.16 1.74,0 2.26,0.8 2.54,2.16 z"
         style="font-style:normal;font-variant:normal;font-weight:normal;font-stretch:normal;font-size:20px;line-height:125%;font-family:OCRB;-inkscape-font-specification:'OCRB, Normal';text-align:center;writing-mode:lr-tb;text-anchor:middle"
         id="path893" />
      <path
         d="m 340.42034,305.84037 c 0,2.88 1.16,5.02 3.6,5.56 0.4,0.08 0.78,0.12 1.16,0.12 1.16,0 2.18,-0.38 3,-1 0.02,0.52 0.48,0.96 1,0.96 0.54,0 1,-0.44 1,-1 v -13.72 c 0,-0.56 -0.46,-1 -1,-1 -0.54,0 -1,0.46 -1,1 v 4.76 c -0.76,-0.56 -1.84,-1.08 -3.04,-1.08 -0.36,0 -0.74,0.06 -1.12,0.16 -2.26,0.62 -3.6,2.5 -3.6,5.24 z m 2,0 c 0,-1.32 0.36,-2.32 1.24,-2.92 0.5,-0.34 1.02,-0.48 1.5,-0.48 1.36,0 2.52,1.12 3.02,2.22 v 2.56 c -0.32,1 -1.12,1.76 -2.02,2.12 -0.42,0.18 -0.82,0.26 -1.18,0.26 -1.72,0 -2.56,-1.9 -2.56,-3.76 z"
         style="font-style:normal;font-variant:normal;font-weight:normal;font-stretch:normal;font-size:20px;line-height:125%;font-family:OCRB;-inkscape-font-specification:'OCRB, Normal';text-align:center;writing-mode:lr-tb;text-anchor:middle"
         id="path895" />
      <path
         d="m 355.16033,306.38037 c 0,0.78 0.02,1.56 0.2,2.24 0.48,1.72 1.8,2.88 3.92,2.92 h 0.08 c 1.36,0 2.42,-0.48 3.24,-1.2 v 0.14 c 0,0.56 0.46,1 1,1 0.52,0 1,-0.46 1,-1 v -8.98 c 0,-0.54 -0.48,-1 -1,-1 -0.54,0 -1,0.44 -1,1 v 5.18 c -0.46,1.36 -1.44,2.86 -3.18,2.86 h -0.1 c -1.94,-0.06 -2.16,-1.36 -2.16,-3.46 v -4.58 c 0,-0.54 -0.48,-1 -1.02,-1 -0.52,0 -0.98,0.48 -0.98,1 v 4.58 z"
         style="font-style:normal;font-variant:normal;font-weight:normal;font-stretch:normal;font-size:20px;line-height:125%;font-family:OCRB;-inkscape-font-specification:'OCRB, Normal';text-align:center;writing-mode:lr-tb;text-anchor:middle"
         id="path897" />
      <path
         d="m 369.34032,310.48037 c 0,0.56 0.46,1 1,1 0.54,0 1,-0.46 1,-1 v -5.56 c 0,-0.78 0.52,-2.48 1.4,-2.48 0.44,0 0.58,0.5 0.6,0.86 v 7.18 c 0,0.56 0.46,1 1,1 0.54,0 1,-0.46 1,-1 v -5.56 c 0,-0.8 0.54,-2.48 1.4,-2.48 0.44,0 0.58,0.5 0.6,0.86 v 7.18 c 0,0.56 0.46,1 1,1 0.54,0 1,-0.46 1,-1 v -7.34 c 0,-1.4 -1.08,-2.7 -2.6,-2.7 -0.8,0 -1.5,0.38 -2.02,0.94 -0.46,-0.56 -1.16,-0.94 -1.98,-0.94 -0.62,0 -1.14,0.2 -1.58,0.52 -0.18,-0.28 -0.48,-0.46 -0.82,-0.46 -0.54,0 -1,0.44 -1,1 z"
         style="font-style:normal;font-variant:normal;font-weight:normal;font-stretch:normal;font-size:20px;line-height:125%;font-family:OCRB;-inkscape-font-specification:'OCRB, Normal';text-align:center;writing-mode:lr-tb;text-anchor:middle"
         id="path899" />
      <path
         d="m 384.02031,313.90037 c 0,0.54 0.44,1 1,1 0.56,0 1,-0.44 1,-1 v -3.44 c 0.74,0.6 1.66,1.02 2.72,1.08 h 0.34 c 3.08,0 4.72,-2.42 4.72,-5.46 0,-2.9 -1.2,-4.88 -3.64,-5.48 -0.44,-0.1 -0.84,-0.16 -1.24,-0.16 -1.14,0 -2.12,0.42 -2.9,1.06 0,-0.56 -0.46,-1 -1,-1 -0.54,0 -1,0.46 -1,1 z m 2,-6.8 v -2.36 c 0.48,-1.06 1.48,-2.2 2.84,-2.3 0.1,0 0.18,-0.02 0.26,-0.02 1.98,0 2.68,1.72 2.68,3.66 0,1.7 -0.64,2.98 -2.1,3.36 -0.26,0.06 -0.5,0.1 -0.74,0.1 -1.54,0 -2.4,-1.38 -2.94,-2.44 z"
         style="font-style:normal;font-variant:normal;font-weight:normal;font-stretch:normal;font-size:20px;line-height:125%;font-family:OCRB;-inkscape-font-specification:'OCRB, Normal';text-align:center;writing-mode:lr-tb;text-anchor:middle"
         id="path901" />
    </g>
    <g
       aria-label="Rapperswil-Jona CH"
       style="font-style:normal;font-variant:normal;font-weight:normal;font-stretch:normal;font-size:20px;line-height:125%;font-family:OCRB;-inkscape-font-specification:'OCRB, Normal';text-align:center;letter-spacing:0px;word-spacing:0px;writing-mode:lr-tb;text-anchor:middle;fill:#000000;fill-opacity:1;stroke:none;stroke-width:1px;stroke-linecap:butt;stroke-linejoin:miter;stroke-opacity:1"
       id="text4913-9-7-9-5-7">
      <path
         d="m 287.43139,329.65211 c 0,0.245 0.20125,0.4375 0.4375,0.4375 0.23625,0 0.4375,-0.20125 0.4375,-0.4375 v -2.16125 h 0.7525 l 1.435,2.47625 c 0.0787,0.0875 0.21,0.1225 0.32375,0.1225 0.23625,0 0.4375,-0.20125 0.4375,-0.4375 0,-0.0788 -0.009,-0.14875 -0.0525,-0.21875 l -1.19,-2.0475 c 0.8575,-0.315 1.19,-1.16375 1.19,-2.135 0,-0.8575 -1.07625,-1.3125 -1.89875,-1.3825 h -1.435 c -0.245,0 -0.4375,0.1925 -0.4375,0.4375 z m 0.875,-3.03625 v -1.8725 h 0.945 c 0.28,0 0.56,0.105 0.805,0.245 0.1225,0.0612 0.27125,0.14875 0.27125,0.2625 0,0.42875 -0.0175,0.8925 -0.34125,1.16375 -0.1925,0.16625 -0.46375,0.20125 -0.7175,0.20125 z"
         style="font-style:normal;font-variant:normal;font-weight:normal;font-stretch:normal;font-size:8.75px;line-height:125%;font-family:OCRB;-inkscape-font-specification:'OCRB, Normal';text-align:end;letter-spacing:-0.29062501px;writing-mode:lr-tb;text-anchor:end"
         id="path904" />
      <path
         d="m 293.23951,328.65461 c 0,0.875 0.79625,1.435 1.53125,1.4875 0.0525,0 0.105,0.009 0.14875,0.009 0.55125,0 1.00625,-0.2275 1.37375,-0.5425 v 0.07 c 0,0.245 0.20125,0.4375 0.4375,0.4375 0.23625,0 0.4375,-0.20125 0.4375,-0.4375 v -2.7125 c 0,-0.48125 -0.1925,-0.95375 -0.5425,-1.28625 -0.35,-0.32375 -0.84,-0.4375 -1.32125,-0.4375 -0.5425,0 -1.05875,0.20125 -1.49625,0.51625 -0.0962,0.07 -0.16625,0.21875 -0.16625,0.34125 0,0.245 0.1925,0.4375 0.4375,0.4375 0.0962,0 0.1925,-0.0263 0.27125,-0.0875 0.27125,-0.21875 0.60375,-0.3325 0.95375,-0.3325 0.2625,0 0.53375,0.0262 0.72625,0.21 0.1925,0.175 0.23625,0.44625 0.2625,0.70875 -1.5225,0.009 -3.05375,0.11375 -3.05375,1.61875 z m 0.875,0 c 0,-0.65625 0.7875,-0.77 1.575,-0.77 0.21,0 0.41125,0.009 0.60375,0.0175 v 0.35 c -0.28,0.455 -0.735,1.015 -1.39125,1.015 h -0.07 c -0.2975,-0.0175 -0.7175,-0.23625 -0.7175,-0.6125 z"
         style="font-style:normal;font-variant:normal;font-weight:normal;font-stretch:normal;font-size:8.75px;line-height:125%;font-family:OCRB;-inkscape-font-specification:'OCRB, Normal';text-align:end;letter-spacing:-0.29062501px;writing-mode:lr-tb;text-anchor:end"
         id="path906" />
      <path
         d="m 299.24888,331.17461 c 0,0.23625 0.1925,0.4375 0.4375,0.4375 0.245,0 0.4375,-0.1925 0.4375,-0.4375 v -1.505 c 0.32375,0.2625 0.72625,0.44625 1.19,0.4725 h 0.14875 c 1.3475,0 2.065,-1.05875 2.065,-2.38875 0,-1.26875 -0.525,-2.135 -1.5925,-2.3975 -0.1925,-0.0437 -0.3675,-0.07 -0.5425,-0.07 -0.49875,0 -0.9275,0.18375 -1.26875,0.46375 0,-0.245 -0.20125,-0.4375 -0.4375,-0.4375 -0.23625,0 -0.4375,0.20125 -0.4375,0.4375 z m 0.875,-2.975 v -1.0325 c 0.21,-0.46375 0.6475,-0.9625 1.2425,-1.00625 0.0437,0 0.0788,-0.009 0.11375,-0.009 0.86625,0 1.1725,0.7525 1.1725,1.60125 0,0.74375 -0.28,1.30375 -0.91875,1.47 -0.11375,0.0263 -0.21875,0.0437 -0.32375,0.0437 -0.67375,0 -1.05,-0.60375 -1.28625,-1.0675 z"
         style="font-style:normal;font-variant:normal;font-weight:normal;font-stretch:normal;font-size:8.75px;line-height:125%;font-family:OCRB;-inkscape-font-specification:'OCRB, Normal';text-align:end;letter-spacing:-0.29062501px;writing-mode:lr-tb;text-anchor:end"
         id="path908" />
      <path
         d="m 305.2845,331.17461 c 0,0.23625 0.1925,0.4375 0.4375,0.4375 0.245,0 0.4375,-0.1925 0.4375,-0.4375 v -1.505 c 0.32375,0.2625 0.72625,0.44625 1.19,0.4725 h 0.14875 c 1.3475,0 2.065,-1.05875 2.065,-2.38875 0,-1.26875 -0.525,-2.135 -1.5925,-2.3975 -0.1925,-0.0437 -0.3675,-0.07 -0.5425,-0.07 -0.49875,0 -0.9275,0.18375 -1.26875,0.46375 0,-0.245 -0.20125,-0.4375 -0.4375,-0.4375 -0.23625,0 -0.4375,0.20125 -0.4375,0.4375 z m 0.875,-2.975 v -1.0325 c 0.21,-0.46375 0.6475,-0.9625 1.2425,-1.00625 0.0437,0 0.0788,-0.009 0.11375,-0.009 0.86625,0 1.1725,0.7525 1.1725,1.60125 0,0.74375 -0.28,1.30375 -0.91875,1.47 -0.11375,0.0263 -0.21875,0.0437 -0.32375,0.0437 -0.67375,0 -1.05,-0.60375 -1.28625,-1.0675 z"
         style="font-style:normal;font-variant:normal;font-weight:normal;font-stretch:normal;font-size:8.75px;line-height:125%;font-family:OCRB;-inkscape-font-specification:'OCRB, Normal';text-align:end;letter-spacing:-0.29062501px;writing-mode:lr-tb;text-anchor:end"
         id="path910" />
      <path
         d="m 311.34637,327.60461 c 0,1.19875 0.49,2.10875 1.42625,2.415 0.21875,0.07 0.51625,0.11375 0.83125,0.11375 0.6825,0 1.4175,-0.20125 1.4175,-0.77875 0,-0.245 -0.20125,-0.4375 -0.44625,-0.4375 -0.11375,0 -0.21875,0.0438 -0.2975,0.1225 -0.11375,0.11375 -0.25375,0.18375 -0.4375,0.21 -0.105,0.0175 -0.21,0.0263 -0.30625,0.0263 -0.8225,0 -1.21625,-0.55125 -1.295,-1.33875 h 2.8 c 0.23625,0 0.4375,-0.20125 0.4375,-0.4375 0,-1.295 -0.69125,-2.2575 -2.02125,-2.2575 h -0.0525 c -1.3125,0.0262 -2.05625,1.05875 -2.05625,2.3625 z m 0.93625,-0.5425 c 0.14875,-0.5425 0.51625,-0.945 1.1375,-0.945 0.76125,0 0.98875,0.35 1.11125,0.945 z"
         style="font-style:normal;font-variant:normal;font-weight:normal;font-stretch:normal;font-size:8.75px;line-height:125%;font-family:OCRB;-inkscape-font-specification:'OCRB, Normal';text-align:end;letter-spacing:-0.29062501px;writing-mode:lr-tb;text-anchor:end"
         id="path912" />
      <path
         d="m 318.05574,329.67836 c 0,0.23625 0.20125,0.4375 0.4375,0.4375 0.23625,0 0.4375,-0.1925 0.4375,-0.4375 v -1.96 c 0,-0.65625 0.385,-1.435 1.085,-1.53125 0.0613,0 0.1225,-0.0263 0.18375,-0.0263 0.0437,0 0.0962,0.0263 0.14,0.0263 0.1575,0.035 0.27125,0.16625 0.27125,0.32375 0.009,0.23625 0.20125,0.42875 0.4375,0.42875 0.23625,0 0.4375,-0.20125 0.4375,-0.44625 -0.009,-0.65625 -0.51625,-1.2075 -1.28625,-1.2075 -0.525,0 -0.945,0.175 -1.26875,0.46375 0,-0.245 -0.1925,-0.42875 -0.4375,-0.42875 -0.23625,0 -0.4375,0.1925 -0.4375,0.42875 z"
         style="font-style:normal;font-variant:normal;font-weight:normal;font-stretch:normal;font-size:8.75px;line-height:125%;font-family:OCRB;-inkscape-font-specification:'OCRB, Normal';text-align:end;letter-spacing:-0.29062501px;writing-mode:lr-tb;text-anchor:end"
         id="path914" />
      <path
         d="m 323.64511,329.15336 c 0,0.0787 0.009,0.1575 0.0525,0.2275 0.32375,0.525 0.88375,0.76125 1.6975,0.76125 h 0.0875 c 1.00625,-0.0263 1.89,-0.41125 1.89,-1.44375 0,-1.21625 -1.295,-1.33 -2.26625,-1.58375 -0.2625,-0.07 -0.53375,-0.18375 -0.53375,-0.51625 0,-0.44625 0.5075,-0.48125 0.91,-0.48125 h 0.2275 c 0.2625,0.0175 0.56,0.0525 0.62125,0.2975 0.0437,0.18375 0.21875,0.32375 0.42875,0.32375 0.23625,0 0.4375,-0.20125 0.4375,-0.4375 0,-0.035 -0.009,-0.07 -0.0175,-0.11375 -0.1575,-0.595 -0.7875,-0.91 -1.42625,-0.945 h -0.27125 c -0.93625,0 -1.785,0.37625 -1.785,1.35625 0,1.21625 1.2075,1.365 2.17,1.61875 0.2625,0.07 0.63,0.1575 0.63,0.48125 0,0.42 -0.5425,0.595 -1.0675,0.595 -0.28875,0 -0.56,-0.0525 -0.74375,-0.14 -0.21875,-0.105 -0.28875,-0.4375 -0.60375,-0.4375 -0.23625,0 -0.4375,0.1925 -0.4375,0.4375 z"
         style="font-style:normal;font-variant:normal;font-weight:normal;font-stretch:normal;font-size:8.75px;line-height:125%;font-family:OCRB;-inkscape-font-specification:'OCRB, Normal';text-align:end;letter-spacing:-0.29062501px;writing-mode:lr-tb;text-anchor:end"
         id="path916" />
      <path
         d="m 329.34823,325.74961 0.48125,3.98125 c 0.0263,0.20125 0.21,0.385 0.4375,0.385 h 0.4375 c 0.20125,0 0.35,-0.14 0.41125,-0.30625 l 0.4025,-1.39125 0.4025,1.39125 c 0.0525,0.16625 0.21,0.30625 0.42,0.30625 h 0.42875 c 0.21875,0 0.41125,-0.175 0.42875,-0.385 l 0.49,-3.98125 v -0.035 c 0,-0.21 -0.21875,-0.4025 -0.44625,-0.4025 -0.2275,0 -0.4025,0.18375 -0.4375,0.385 l -0.34125,2.835 -0.32375,-1.1025 c -0.0525,-0.175 -0.21,-0.315 -0.42,-0.315 h -0.4025 c -0.20125,0 -0.37625,0.14 -0.42,0.315 l -0.32375,1.1025 -0.35,-2.835 c -0.0175,-0.21 -0.21,-0.385 -0.42875,-0.385 -0.23625,0 -0.44625,0.20125 -0.44625,0.4375 z"
         style="font-style:normal;font-variant:normal;font-weight:normal;font-stretch:normal;font-size:8.75px;line-height:125%;font-family:OCRB;-inkscape-font-specification:'OCRB, Normal';text-align:end;letter-spacing:-0.29062501px;writing-mode:lr-tb;text-anchor:end"
         id="path918" />
      <path
         d="m 335.96136,325.85461 c 0,0.23625 0.20125,0.4375 0.4375,0.4375 h 1.1375 v 3.38625 c 0,0.23625 0.20125,0.4375 0.4375,0.4375 0.23625,0 0.4375,-0.1925 0.4375,-0.4375 v -3.82375 c 0,-0.245 -0.1925,-0.4375 -0.4375,-0.4375 h -1.575 c -0.245,0 -0.4375,0.20125 -0.4375,0.4375 z m 1.2075,-1.77625 c 0,0.245 0.20125,0.4375 0.4375,0.4375 h 0.39375 c 0.23625,0 0.4375,-0.1925 0.4375,-0.4375 v -0.4025 c 0,-0.245 -0.20125,-0.4375 -0.4375,-0.4375 h -0.39375 c -0.23625,0 -0.4375,0.1925 -0.4375,0.4375 z"
         style="font-style:normal;font-variant:normal;font-weight:normal;font-stretch:normal;font-size:8.75px;line-height:125%;font-family:OCRB;-inkscape-font-specification:'OCRB, Normal';text-align:end;letter-spacing:-0.29062501px;writing-mode:lr-tb;text-anchor:end"
         id="path920" />
      <path
         d="m 342.62698,328.00711 c 0,0.62125 0.07,1.0675 0.3675,1.46125 0.385,0.5075 0.95375,0.595 1.84625,0.595 0.23625,0 0.4375,-0.20125 0.4375,-0.4375 0,-0.23625 -0.20125,-0.4375 -0.4375,-0.4375 -0.2275,0 -0.56,0 -0.6825,-0.0175 -0.56875,-0.0788 -0.665,-0.5425 -0.665,-1.16375 l 0.0613,-4.3225 c 0,-0.245 -0.20125,-0.44625 -0.4375,-0.44625 -0.245,0 -0.4375,0.20125 -0.4375,0.44625 z"
         style="font-style:normal;font-variant:normal;font-weight:normal;font-stretch:normal;font-size:8.75px;line-height:125%;font-family:OCRB;-inkscape-font-specification:'OCRB, Normal';text-align:end;letter-spacing:-0.29062501px;writing-mode:lr-tb;text-anchor:end"
         id="path922" />
      <path
         d="m 347.4376,326.79961 c 0,0.245 0.1925,0.4375 0.4375,0.4375 h 3.5 c 0.245,0 0.4375,-0.20125 0.4375,-0.4375 v -0.245 c 0,-0.23625 -0.1925,-0.4375 -0.4375,-0.4375 h -3.5 c -0.245,0 -0.4375,0.1925 -0.4375,0.4375 z"
         style="font-style:normal;font-variant:normal;font-weight:normal;font-stretch:normal;font-size:8.75px;line-height:125%;font-family:OCRB;-inkscape-font-specification:'OCRB, Normal';text-align:end;letter-spacing:-0.29062501px;writing-mode:lr-tb;text-anchor:end"
         id="path924" />
      <path
         d="m 353.62197,328.55836 c 0,0.63875 0.39375,1.1375 0.83125,1.3825 0.2625,0.14 0.525,0.20125 0.77,0.20125 0.84875,0 1.5575,-0.735 1.5575,-1.54875 0,-0.035 -0.009,-0.0788 -0.009,-0.11375 v -4.27875 c 0,-0.23625 -0.20125,-0.4375 -0.4375,-0.4375 -0.23625,0 -0.4375,0.20125 -0.4375,0.4375 v 4.34875 c 0,0.49 -0.315,0.7 -0.63875,0.7 -0.3675,0 -0.76125,-0.2625 -0.76125,-0.7 0,-0.0437 0.009,-0.0875 0.0175,-0.14 v -0.0788 c 0,-0.245 -0.18375,-0.4375 -0.42875,-0.4375 -0.2275,0 -0.385,0.14875 -0.42875,0.35 -0.0263,0.11375 -0.035,0.21 -0.035,0.315 z"
         style="font-style:normal;font-variant:normal;font-weight:normal;font-stretch:normal;font-size:8.75px;line-height:125%;font-family:OCRB;-inkscape-font-specification:'OCRB, Normal';text-align:end;letter-spacing:-0.29062501px;writing-mode:lr-tb;text-anchor:end"
         id="path926" />
      <path
         d="m 359.50884,327.70086 c 0,1.3825 0.77875,2.44125 2.1875,2.44125 1.4,0 2.1875,-1.07625 2.1875,-2.44125 0,-1.3825 -0.805,-2.45875 -2.1875,-2.45875 -1.42625,0 -2.1875,1.07625 -2.1875,2.45875 z m 0.875,0 c 0,-0.86625 0.42,-1.58375 1.3125,-1.58375 0.88375,0 1.3125,0.70875 1.3125,1.58375 0,0.86625 -0.41125,1.56625 -1.3125,1.56625 -0.90125,0 -1.3125,-0.7 -1.3125,-1.56625 z"
         style="font-style:normal;font-variant:normal;font-weight:normal;font-stretch:normal;font-size:8.75px;line-height:125%;font-family:OCRB;-inkscape-font-specification:'OCRB, Normal';text-align:end;letter-spacing:-0.29062501px;writing-mode:lr-tb;text-anchor:end"
         id="path928" />
      <path
         d="m 365.66696,329.67836 c 0,0.23625 0.20125,0.4375 0.4375,0.4375 0.23625,0 0.4375,-0.20125 0.4375,-0.4375 v -2.3275 c 0.2275,-0.56 0.6825,-1.19 1.435,-1.19 0.79625,0 0.945,0.55125 0.945,1.33875 v 2.17875 c 0,0.245 0.20125,0.4375 0.4375,0.4375 0.2275,0 0.4375,-0.20125 0.4375,-0.4375 v -2.17875 c 0,-1.30375 -0.5075,-2.21375 -1.82,-2.21375 -0.595,0 -1.0675,0.21875 -1.435,0.5425 v -0.0787 c 0,-0.23625 -0.20125,-0.42875 -0.4375,-0.42875 -0.23625,0 -0.4375,0.1925 -0.4375,0.42875 z"
         style="font-style:normal;font-variant:normal;font-weight:normal;font-stretch:normal;font-size:8.75px;line-height:125%;font-family:OCRB;-inkscape-font-specification:'OCRB, Normal';text-align:end;letter-spacing:-0.29062501px;writing-mode:lr-tb;text-anchor:end"
         id="path930" />
      <path
         d="m 371.70258,328.65461 c 0,0.875 0.79625,1.435 1.53125,1.4875 0.0525,0 0.105,0.009 0.14875,0.009 0.55125,0 1.00625,-0.2275 1.37375,-0.5425 v 0.07 c 0,0.245 0.20125,0.4375 0.4375,0.4375 0.23625,0 0.4375,-0.20125 0.4375,-0.4375 v -2.7125 c 0,-0.48125 -0.1925,-0.95375 -0.5425,-1.28625 -0.35,-0.32375 -0.84,-0.4375 -1.32125,-0.4375 -0.5425,0 -1.05875,0.20125 -1.49625,0.51625 -0.0962,0.07 -0.16625,0.21875 -0.16625,0.34125 0,0.245 0.1925,0.4375 0.4375,0.4375 0.0962,0 0.1925,-0.0263 0.27125,-0.0875 0.27125,-0.21875 0.60375,-0.3325 0.95375,-0.3325 0.2625,0 0.53375,0.0262 0.72625,0.21 0.1925,0.175 0.23625,0.44625 0.2625,0.70875 -1.5225,0.009 -3.05375,0.11375 -3.05375,1.61875 z m 0.875,0 c 0,-0.65625 0.7875,-0.77 1.575,-0.77 0.21,0 0.41125,0.009 0.60375,0.0175 v 0.35 c -0.28,0.455 -0.735,1.015 -1.39125,1.015 h -0.07 c -0.2975,-0.0175 -0.7175,-0.23625 -0.7175,-0.6125 z"
         style="font-style:normal;font-variant:normal;font-weight:normal;font-stretch:normal;font-size:8.75px;line-height:125%;font-family:OCRB;-inkscape-font-specification:'OCRB, Normal';text-align:end;letter-spacing:-0.29062501px;writing-mode:lr-tb;text-anchor:end"
         id="path932" />
      <path
         d="m 384.07133,327.00961 c 0.0175,1.56625 0.44625,3.10625 2.065,3.10625 0.77,0 1.365,-0.4725 1.47875,-1.1375 v -0.0788 c 0,-0.23625 -0.1925,-0.4375 -0.42875,-0.4375 -0.21,0 -0.39375,0.16625 -0.42875,0.35875 -0.0525,0.27125 -0.30625,0.42 -0.62125,0.42 -1.05,0 -1.1725,-1.25125 -1.19,-2.24875 v -0.14875 c 0,-1.015 0.18375,-2.17875 1.14625,-2.23125 h 0.0437 c 0.1575,0 0.30625,0.0438 0.4375,0.14 0.245,0.18375 0.18375,0.63875 0.6125,0.63875 0.23625,0 0.42875,-0.20125 0.42875,-0.4375 v -0.0875 c -0.14875,-0.65625 -0.735,-1.12875 -1.49625,-1.12875 h -0.0437 c -1.5575,0.035 -2.00375,1.575 -2.00375,3.17625 z"
         style="font-style:normal;font-variant:normal;font-weight:normal;font-stretch:normal;font-size:8.75px;line-height:125%;font-family:OCRB;-inkscape-font-specification:'OCRB, Normal';text-align:end;letter-spacing:-0.29062501px;writing-mode:lr-tb;text-anchor:end"
         id="path934" />
      <path
         d="m 389.93195,329.65211 c 0,0.23625 0.20125,0.4375 0.4375,0.4375 0.23625,0 0.4375,-0.1925 0.4375,-0.4375 v -2.3625 h 2.12625 v 2.3625 c 0,0.23625 0.20125,0.4375 0.4375,0.4375 0.23625,0 0.4375,-0.1925 0.4375,-0.4375 v -5.45125 c 0,-0.245 -0.20125,-0.4375 -0.4375,-0.4375 -0.23625,0 -0.4375,0.20125 -0.4375,0.4375 v 2.21375 h -2.12625 v -2.21375 c 0,-0.245 -0.20125,-0.4375 -0.4375,-0.4375 -0.23625,0 -0.4375,0.20125 -0.4375,0.4375 z"
         style="font-style:normal;font-variant:normal;font-weight:normal;font-stretch:normal;font-size:8.75px;line-height:125%;font-family:OCRB;-inkscape-font-specification:'OCRB, Normal';text-align:end;letter-spacing:-0.29062501px;writing-mode:lr-tb;text-anchor:end"
         id="path936" />
    </g>
  </g>
</svg>
